<?xml version="1.0" ?><svg data-name="Camada 1" id="Camada_1" viewBox="0 0 512 512" xmlns="http://www.w3.org/2000/svg" xmlns:xlink="http://www.w3.org/1999/xlink"><defs><style>.cls-1{fill:#8eb061;}.cls-2{clip-path:url(#clip-path);}.cls-3{fill:#74a244;}.cls-4{fill:#fff;}.cls-5{fill:#cbcbcb;}</style><clipPath id="clip-path"><circle class="cls-1" cx="256" cy="256" data-name="&lt;Elipse&gt;" id="_Elipse_" r="189"/></clipPath></defs><title/><circle class="cls-1" cx="256" cy="256" data-name="&lt;Elipse&gt;" id="_Elipse_2" r="189"/><g class="cls-2"><polygon class="cls-3" points="274.68 223.32 241.29 188.04 270.41 158.69 440.87 338.77 355.17 466.92 240.63 352.38 241 229 274.68 223.32"/></g><rect class="cls-4" height="146.65" rx="20.66" ry="20.66" width="41.32" x="235.34" y="212.52"/><circle class="cls-4" cx="256" cy="173.5" r="20.66"/><path class="cls-5" d="M276.66,338.5V233.18A20.66,20.66,0,0,0,256,212.52V359.16A20.66,20.66,0,0,0,276.66,338.5Z"/><path class="cls-5" d="M276.66,173.5A20.66,20.66,0,0,0,256,152.84v41.32A20.66,20.66,0,0,0,276.66,173.5Z"/></svg>