<?xml version="1.0" ?><svg id="Layer_3" style="enable-background:new 0 0 64 64;" version="1.1" viewBox="0 0 64 64" xml:space="preserve" xmlns="http://www.w3.org/2000/svg" xmlns:xlink="http://www.w3.org/1999/xlink"><g><g><rect height="13" style="fill:#155671;" width="6" x="56" y="44"/></g><g><rect height="13" style="fill:#1F80AA;" width="4" x="56" y="44"/></g><g><polyline points="57,57 57,62 61,62 61,57   " style="fill:#0A558B;"/></g><g><rect height="5" style="fill:#0D71BA;" width="2" x="57" y="57"/></g><g><polygon points="61,11 59,6 57,11   " style="fill:#666666;"/></g><g><polygon points="57,11 60,11 58.5,7.25   " style="fill:#808080;"/></g><g><rect height="33" style="fill:#0A558B;" width="4" x="57" y="11"/></g><g><rect height="33" style="fill:#0D71BA;" width="2" x="57" y="11"/></g><g><rect height="44" style="fill:#B96E16;" width="6" x="46" y="18"/></g><g><rect height="44" style="fill:#F7931E;" width="3" x="46" y="18"/></g><g><rect height="6" style="fill:#1A1A1A;" width="6" x="46" y="56"/></g><g><rect height="6" style="fill:#333333;" width="4" x="46" y="56"/></g><g><polygon points="52,18 49,8 46,18   " style="fill:#F9A94B;"/></g><g><polygon points="46,18 50,18 48,11.333   " style="fill:#FABE78;"/></g><g><rect height="60" style="fill:#66AAD7;" width="38" x="2" y="2"/></g><g><rect height="60" style="fill:#99C6E4;" width="34" x="2" y="2"/></g><g><rect height="4" style="fill:#8C6239;" width="4" x="8" y="14"/></g><g><rect height="4" style="fill:#A67C52;" width="2" x="8" y="14"/></g><g><rect height="4" style="fill:#8C6239;" width="4" x="8" y="22"/></g><g><rect height="4" style="fill:#A67C52;" width="2" x="8" y="22"/></g><g><rect height="4" style="fill:#8C6239;" width="4" x="8" y="30"/></g><g><rect height="4" style="fill:#A67C52;" width="2" x="8" y="30"/></g><g><rect height="4" style="fill:#8C6239;" width="4" x="8" y="38"/></g><g><rect height="4" style="fill:#A67C52;" width="2" x="8" y="38"/></g><g><rect height="4" style="fill:#8C6239;" width="4" x="8" y="46"/></g><g><rect height="4" style="fill:#A67C52;" width="2" x="8" y="46"/></g><g><g><rect height="2" style="fill:#4D4D4D;" width="20" x="11" y="5"/></g></g><g><g><rect height="2" style="fill:#4D4D4D;" width="11" x="15" y="9"/></g></g><g><g><rect height="2" style="fill:#4D4D4D;" width="18" x="17" y="15"/></g></g><g><g><rect height="2" style="fill:#4D4D4D;" width="18" x="17" y="23"/></g></g><g><g><rect height="2" style="fill:#4D4D4D;" width="18" x="17" y="31"/></g></g><g><g><rect height="2" style="fill:#4D4D4D;" width="18" x="17" y="39"/></g></g><g><g><rect height="2" style="fill:#4D4D4D;" width="18" x="17" y="47"/></g></g></g></svg>